<?xml version="1.0" encoding="UTF-8" standalone="no"?>
<svg width="37px" height="34px" viewBox="0 0 37 34" version="1.1" xmlns="http://www.w3.org/2000/svg" xmlns:xlink="http://www.w3.org/1999/xlink">
    <!-- Generator: Sketch 3.7.2 (28276) - http://www.bohemiancoding.com/sketch -->
    <title>Group 2</title>
    <desc>Created with Sketch.</desc>
    <defs></defs>
    <g id="Page-1" stroke="none" stroke-width="1" fill="none" fill-rule="evenodd">
        <g id="Desktop" transform="translate(-116.000000, -35.000000)">
            <g id="Group-2" transform="translate(115.000000, 36.000000)">
                <path d="M19.5,27.5140187 C26.726848,27.5140187 33.4158078,21.6895359 33.4158078,14.5046726 C33.4158078,7.31980929 26.726848,0.120969077 19.5,0.120969077 C12.273152,0.120969077 5.31028863,7.31980929 5.31028863,14.5046726 C5.31028863,21.6895359 12.273152,27.5140187 19.5,27.5140187 Z" id="Oval-9" stroke="#292929" stroke-width="0.6" fill="#E7E234"></path>
                <ellipse id="Oval-4" stroke="#292929" stroke-width="0.6" fill="#F5F39B" cx="19.5" cy="28.8598131" rx="3.15853659" ry="3.14018692"></ellipse>
                <path d="M19.3495935,27.7668467 C18.3048613,28.8982677 16.8048426,29.6074766 15.1382114,29.6074766 C11.9816571,29.6074766 9.42276423,27.0634498 9.42276423,23.9252336 C9.42276423,20.7870175 11.9816571,18.2429907 15.1382114,18.2429907 C16.8048426,18.2429907 18.3048613,18.9521996 19.3495935,20.0836206 C20.3943257,18.9521996 21.8943443,18.2429907 23.5609756,18.2429907 C26.7175299,18.2429907 29.2764228,20.7870175 29.2764228,23.9252336 C29.2764228,27.0634498 26.7175299,29.6074766 23.5609756,29.6074766 C21.8943443,29.6074766 20.3943257,28.8982677 19.3495935,27.7668467 Z" id="Combined-Shape" stroke="#292929" stroke-width="0.6" fill="#F6F39B"></path>
                <path d="M19.3495935,23.1796046 C22.8384167,23.1796046 25.6666667,21.8535731 25.6666667,18.5440906 C25.6666667,15.2346082 22.8384167,18.6936233 19.3495935,18.6936233 C15.8607703,18.6936233 13.0325203,15.0899065 13.0325203,18.5440906 C13.0325203,21.9982747 15.8607703,23.1796046 19.3495935,23.1796046 Z" id="Oval-3" fill="#292929"></path>
                <g id="Group" transform="translate(26.869919, 20.635514)" stroke="#292929" stroke-width="0.6">
                    <path d="M0.00272622114,1.80281608 C0.00272622114,1.80281608 4.59746487,0.199076545 10.1189646,0.199076485" id="Path-1"></path>
                    <path d="M0.905165246,4.79347029 C0.905165246,4.79347029 5.4999039,3.18973075 11.0214036,3.18973069" id="Path-1-Copy" transform="translate(5.963284, 3.991600) rotate(14.000000) translate(-5.963284, -3.991600) "></path>
                    <path d="M0.00272622114,7.7841245 C0.00272622114,7.7841245 4.59746487,6.18038496 10.1189646,6.1803849" id="Path-1-Copy-2" transform="translate(5.060845, 6.982255) rotate(27.000000) translate(-5.060845, -6.982255) "></path>
                </g>
                <g id="Group-Copy" transform="translate(6.130081, 25.635514) scale(-1, 1) translate(-6.130081, -25.635514) translate(0.130081, 20.635514)" stroke="#292929" stroke-width="0.6">
                    <path d="M0.00272622114,1.80281608 C0.00272622114,1.80281608 4.59746487,0.199076545 10.1189646,0.199076485" id="Path-1"></path>
                    <path d="M0.905165246,4.79347029 C0.905165246,4.79347029 5.4999039,3.18973075 11.0214036,3.18973069" id="Path-1-Copy" transform="translate(5.963284, 3.991600) rotate(14.000000) translate(-5.963284, -3.991600) "></path>
                    <path d="M0.00272622114,7.7841245 C0.00272622114,7.7841245 4.59746487,6.18038496 10.1189646,6.1803849" id="Path-1-Copy-2" transform="translate(5.060845, 6.982255) rotate(27.000000) translate(-5.060845, -6.982255) "></path>
                </g>
                <ellipse id="Oval-5" stroke="#292929" stroke-width="0.6" fill="#FFFFFF" cx="13.4837398" cy="11.8130841" rx="2.85772358" ry="2.8411215"></ellipse>
                <ellipse id="Oval-5-Copy" stroke="#292929" stroke-width="0.6" fill="#FFFFFF" cx="25.5162602" cy="11.8130841" rx="2.85772358" ry="2.8411215"></ellipse>
                <path d="M21.8115451,11.6446816 C21.8115451,11.6446816 25.8989609,9.43511896 28.9605705,10.1269309 C32.0221801,10.8187428 25.5049172,7.2589923 25.5049172,7.2589923 L21.4055872,9.54551486 L21.8115451,11.6446816 Z" id="Path-7-Copy-2" fill="#E6E135"></path>
                <path d="M9.17739871,11.6446816 C9.17739871,11.6446816 13.2648145,9.43511896 16.3264241,10.1269309 C19.3880337,10.8187428 12.8707709,7.2589923 12.8707709,7.2589923 L8.77144085,9.54551486 L9.17739871,11.6446816 Z" id="Path-7-Copy-3" fill="#E6E135" transform="translate(12.957997, 9.451837) scale(-1, 1) translate(-12.957997, -9.451837) "></path>
                <path d="M21.8115451,11.6446816 C21.8115451,11.6446816 25.8989609,9.43511896 28.9605705,10.1269309" id="Path-7" stroke="#292929" stroke-width="0.6"></path>
                <path d="M17.2288632,11.6446816 C17.2288632,11.6446816 13.1414473,9.43511896 10.0798377,10.1269309" id="Path-7-Copy" stroke="#292929" stroke-width="0.6"></path>
                <ellipse id="Oval-7" fill="#292929" cx="13.9349593" cy="11.9626168" rx="1.20325203" ry="1.19626168"></ellipse>
                <ellipse id="Oval-7-Copy" fill="#292929" cx="25.0650407" cy="11.9626168" rx="1.20325203" ry="1.19626168"></ellipse>
            </g>
        </g>
    </g>
</svg>